<?xml version="1.0" encoding="utf-8"?>
<!-- Generator: Adobe Illustrator 30.1.0, SVG Export Plug-In . SVG Version: 9.03 Build 0)  -->
<svg version="1.1" id="Layer_1" xmlns="http://www.w3.org/2000/svg" xmlns:xlink="http://www.w3.org/1999/xlink" x="0px" y="0px"
	 viewBox="0 0 560.24 560.24" style="enable-background:new 0 0 560.24 560.24;" xml:space="preserve">
<style type="text/css">
	.st0{fill:#C7B299;}
	.st1{fill:#998675;}
	.st2{opacity:0.07;}
</style>
<path class="st0" d="M503.61,560.24H56.63C25.35,560.24,0,534.89,0,503.61V56.63C0,25.35,25.35,0,56.63,0h446.99
	c31.27,0,56.63,25.35,56.63,56.63v446.99C560.24,534.89,534.89,560.24,503.61,560.24z"/>
<path class="st1" d="M448.49,505.12H111.75c-31.27,0-56.63-25.35-56.63-56.63V111.75c0-31.27,25.35-56.63,56.63-56.63h336.75
	c31.27,0,56.63,25.35,56.63,56.63v336.75C505.12,479.77,479.77,505.12,448.49,505.12z"/>
<g class="st2">
	<path d="M42.17,509.64c-23.21-27.36-13.87-48.29-30.12-229.52C7.54,229.91,3.02,189.08,0,163.16c0,113.48,0,226.97,0,340.45
		c0,31.27,25.35,56.63,56.63,56.63h446.99c7.01,0,13.72-1.28,19.91-3.61c-43.6-2.28-112.83-5.63-198.23-8.44
		C117.46,541.35,73.18,546.19,42.17,509.64z"/>
</g>
<g>
</g>
<g>
</g>
<g>
</g>
<g>
</g>
<g>
</g>
<g>
</g>
<g>
</g>
<g>
</g>
<g>
</g>
<g>
</g>
<g>
</g>
<g>
</g>
<g>
</g>
<g>
</g>
<g>
</g>
</svg>
