<?xml version="1.0" encoding="utf-8"?>
<!-- Generator: Adobe Illustrator 30.1.0, SVG Export Plug-In . SVG Version: 9.03 Build 0)  -->
<svg version="1.1" id="Layer_1" xmlns="http://www.w3.org/2000/svg" xmlns:xlink="http://www.w3.org/1999/xlink" x="0px" y="0px"
	 viewBox="0 0 676.17 149.28" style="enable-background:new 0 0 676.17 149.28;" xml:space="preserve">
<style type="text/css">
	.st0{fill:#C7B299;}
	.st1{fill:#998675;}
	.st2{fill:#333333;}
	.st3{fill:#1A1A1A;}
	.st4{opacity:0.25;}
</style>
<rect class="st0" width="676.17" height="45.59"/>
<path class="st1" d="M0,16.63v28.96h676.17c-165.02-2.09-337.27-7.9-515.99-18.39C106.02,24.01,52.62,20.48,0,16.63z"/>
<rect x="123.01" y="45.59" class="st2" width="30.91" height="103.7"/>
<path class="st3" d="M123.07,45.59h-0.06v103.7h30.91l0,0C143.64,114.72,133.36,80.15,123.07,45.59z"/>
<rect x="525.66" y="45.59" class="st2" width="30.91" height="103.7"/>
<path class="st3" d="M525.72,45.59h-0.06v103.7h30.91l0,0C546.29,114.72,536.01,80.15,525.72,45.59z"/>
<polygon class="st4" points="549.93,138.23 126.24,138.23 0,45.59 676.17,45.59 "/>
<g>
</g>
<g>
</g>
<g>
</g>
<g>
</g>
<g>
</g>
<g>
</g>
<g>
</g>
<g>
</g>
<g>
</g>
<g>
</g>
<g>
</g>
<g>
</g>
<g>
</g>
<g>
</g>
<g>
</g>
</svg>
