<?xml version="1.0" encoding="utf-8"?>
<!-- Generator: Adobe Illustrator 29.8.4, SVG Export Plug-In . SVG Version: 9.03 Build 0)  -->
<svg version="1.1" xmlns="http://www.w3.org/2000/svg" xmlns:xlink="http://www.w3.org/1999/xlink" x="0px" y="0px"
	 viewBox="0 0 86.77 44.13" style="enable-background:new 0 0 86.77 44.13;" xml:space="preserve">
<style type="text/css">
	.st0{display:none;}
	.st1{fill:#879ECE;}
	.st2{fill:#83AD82;}
</style>
<g id="Layer_1" class="st0">
</g>
<g id="Layer_2">
	<g>
		<path class="st1" d="M0.5,0.51c5.09,0,10.17,0,15.26,0C15.07,1,14.06,1.8,13.09,2.98c-3,3.66-2.76,7.39-2.63,18.93
			c0.12,11.66-0.05,15.51,3.07,19.43c0.84,1.06,1.68,1.82,2.24,2.28c-5.09,0-10.17,0-15.26,0c0.63-0.54,1.5-1.38,2.35-2.53
			c3.27-4.43,2.42-8.37,2.59-19.03c0.17-10.93,1.18-14.82-2-18.85C2.41,1.91,1.3,1.04,0.5,0.51z"/>
		<path class="st1" d="M15.76,44.13H0.5c-0.21,0-0.4-0.13-0.47-0.33s-0.02-0.42,0.14-0.55c0.85-0.74,1.62-1.56,2.28-2.45
			c2.51-3.4,2.5-6.43,2.47-13.05c-0.01-1.66-0.01-3.54,0.02-5.69c0.04-2.27,0.11-4.23,0.17-5.96C5.36,9.56,5.46,6.58,3.06,3.53
			C2.27,2.54,1.32,1.66,0.22,0.92C0.04,0.8-0.04,0.57,0.02,0.36C0.09,0.15,0.28,0.01,0.5,0.01h15.26c0.22,0,0.41,0.14,0.48,0.35
			c0.07,0.21-0.01,0.43-0.19,0.56C15.08,1.6,14.21,2.4,13.47,3.3c-2.7,3.29-2.66,6.63-2.54,16.54l0.04,4.17
			c0.1,10.08,0.13,13.48,2.94,17.02c0.64,0.8,1.37,1.55,2.17,2.21c0.16,0.13,0.22,0.36,0.15,0.55S15.97,44.13,15.76,44.13z
			 M1.77,43.13h12.69c-0.48-0.46-0.92-0.96-1.33-1.47c-3.02-3.81-3.06-7.57-3.15-17.63l-0.04-4.17C9.81,9.94,9.77,6.24,12.7,2.67
			c0.49-0.59,1.03-1.15,1.61-1.66H1.99c0.69,0.58,1.3,1.22,1.85,1.9c2.64,3.34,2.52,6.64,2.27,13.22c-0.06,1.72-0.13,3.68-0.17,5.94
			c-0.03,2.14-0.03,4.01-0.02,5.67c0.03,6.65,0.04,9.98-2.67,13.65C2.81,42.01,2.31,42.59,1.77,43.13z"/>
	</g>
	<g>
		<path class="st1" d="M40.47,0.68v6.85c-0.67-1.01-2.73-3.84-6.51-4.96c-2.99-0.89-8.2-1.03-10.43,2.35
			c-1.99,3.01-0.35,6.9-0.26,7.11c0.9,2.04,2.31,2.88,7.24,6.2c2.9,1.95,5.27,3.58,6.91,4.72c-0.6,0.87-1.49,2.39-1.88,4.47
			c-0.27,1.42-0.23,2.65-0.13,3.54c-2.72-1.99-4.98-3.47-6.52-4.45c-3.37-2.13-5.75-3.55-8.38-6.56c-0.29-0.33-0.55-0.67-0.82-1.07
			c-0.96-1.42-3.55-5.26-2.48-9.98c0.85-3.74,3.71-6.77,6.85-7.96c1.86-0.7,2.83-0.38,9-0.26C36.25,0.75,38.85,0.72,40.47,0.68z"/>
		<path class="st1" d="M35.4,31.46c-0.1,0-0.21-0.03-0.3-0.1c-2.16-1.58-4.35-3.07-6.49-4.43l-0.58-0.37
			c-3.12-1.97-5.38-3.4-7.9-6.28c-0.29-0.33-0.56-0.69-0.85-1.12c-1-1.49-3.67-5.44-2.55-10.37c0.84-3.73,3.65-6.99,7.16-8.31
			c1.45-0.55,2.4-0.51,5.22-0.41c1.02,0.04,2.31,0.08,3.96,0.12c2.49,0.05,4.98,0.05,7.4,0c0.12,0,0.26,0.05,0.36,0.14
			c0.1,0.09,0.15,0.22,0.15,0.36v6.85c0,0.22-0.14,0.42-0.36,0.48c-0.21,0.07-0.44-0.02-0.56-0.2c-0.9-1.35-2.9-3.77-6.23-4.75
			C30.98,2.21,26,2.09,23.95,5.2c-1.86,2.81-0.29,6.48-0.22,6.63c0.78,1.77,2,2.59,6.06,5.31l1,0.67c2.9,1.95,5.28,3.59,6.91,4.73
			c0.23,0.16,0.28,0.47,0.13,0.69c-0.9,1.31-1.51,2.75-1.8,4.28c-0.21,1.11-0.26,2.25-0.12,3.39c0.02,0.2-0.07,0.39-0.25,0.49
			C35.57,31.44,35.49,31.46,35.4,31.46z M26.81,1.01c-1.12,0-1.76,0.09-2.58,0.41c-3.15,1.19-5.78,4.24-6.54,7.6
			c-1.02,4.51,1.47,8.2,2.41,9.59c0.27,0.39,0.51,0.72,0.78,1.02c2.43,2.77,4.64,4.17,7.69,6.1l0.58,0.37
			c1.88,1.19,3.78,2.48,5.68,3.84c-0.02-0.87,0.05-1.74,0.21-2.6c0.29-1.51,0.86-2.94,1.69-4.25c-1.61-1.12-3.83-2.65-6.5-4.44
			l-1-0.67c-4.14-2.77-5.53-3.71-6.42-5.74c-0.08-0.17-1.86-4.32,0.3-7.59c2.54-3.84,8.3-3.35,10.99-2.55
			c2.76,0.82,4.68,2.52,5.87,3.94V1.19c-2.27,0.04-4.6,0.04-6.93-0.01c-1.67-0.03-2.95-0.08-3.98-0.12
			C28.12,1.03,27.4,1.01,26.81,1.01z"/>
	</g>
	<g>
		<path class="st2" d="M26.55,43.09c4.05,0.01,6.04-1.45,6.9-2.26c0.88-0.83,1.4-1.63,3.43-6.5c0.48-1.16,1.21-2.87,2.15-4.96
			c0.41,0.26,0.82,0.53,1.23,0.79c-0.85,1.2-2.01,3.04-2.97,5.49c-1.18,2.98-1.04,4.24-2.09,5.51
			C34.13,42.47,31.86,43.7,26.55,43.09z"/>
		<path class="st2" d="M29.11,43.75c-0.81,0-1.69-0.05-2.62-0.16c-0.26-0.03-0.46-0.26-0.44-0.53c0.02-0.26,0.23-0.47,0.5-0.47
			c0.02,0,0.03,0,0.05,0c2.78,0,5.03-0.73,6.51-2.12c0.81-0.76,1.3-1.5,3.31-6.33c0.69-1.65,1.41-3.32,2.16-4.97
			c0.06-0.13,0.17-0.23,0.31-0.27c0.14-0.04,0.29-0.02,0.41,0.06l1.23,0.79c0.12,0.07,0.19,0.19,0.22,0.33s0,0.27-0.08,0.38
			c-1.19,1.68-2.17,3.49-2.92,5.38c-0.48,1.21-0.74,2.15-0.95,2.9c-0.31,1.12-0.54,1.92-1.22,2.74
			C34.34,42.99,32.17,43.75,29.11,43.75z M36.26,37.06c-1.17,2.63-1.69,3.4-2.47,4.13c-0.52,0.49-1.13,0.91-1.81,1.26
			c1.25-0.3,2.2-0.84,2.84-1.61c0.54-0.66,0.72-1.3,1.02-2.38C35.95,38.06,36.08,37.6,36.26,37.06z M39.25,30.11
			c-0.38,0.86-0.76,1.72-1.13,2.58c0.44-0.82,0.92-1.61,1.44-2.38L39.25,30.11z"/>
	</g>
	<g>
		<path class="st2" d="M51.25,18.29c-1.58,0.29-3.87,0.84-6.46,2.02c-1.83,0.83-2.74,1.25-3.72,2.22c-2.46,2.45-2.79,5.86-2.89,6.85
			c-0.08,0.84-0.07,1.54-0.04,2.02c0.8-0.5,2.05-1.24,3.64-2.02c3.92-1.93,5.55-2.02,7.24-3.91c1.19-1.33,1.66-2.8,1.83-3.33
			C51.37,20.51,51.33,19.11,51.25,18.29z"/>
		<path class="st2" d="M38.15,31.9c-0.08,0-0.16-0.02-0.23-0.06c-0.16-0.08-0.26-0.24-0.27-0.41c-0.04-0.7-0.03-1.4,0.04-2.1
			c0.3-3.03,1.31-5.44,3.03-7.15c1.04-1.04,2.04-1.49,3.86-2.32c2.1-0.95,4.31-1.65,6.57-2.06c0.14-0.03,0.28,0.01,0.39,0.09
			c0.11,0.08,0.18,0.21,0.2,0.35c0.14,1.35-0.01,2.75-0.41,4.05c-0.16,0.51-0.65,2.07-1.93,3.51c-1.2,1.35-2.38,1.84-4.17,2.59
			c-0.9,0.38-1.93,0.8-3.22,1.44c-1.23,0.61-2.44,1.28-3.6,2C38.33,31.88,38.24,31.9,38.15,31.9z M50.79,18.89
			c-1.99,0.41-3.94,1.04-5.79,1.88c-1.83,0.83-2.66,1.21-3.57,2.12c-1.55,1.54-2.47,3.74-2.74,6.54c-0.04,0.36-0.05,0.73-0.06,1.1
			c0.96-0.57,1.94-1.1,2.94-1.6c1.32-0.65,2.41-1.11,3.28-1.47c1.72-0.72,2.76-1.15,3.81-2.33c1.14-1.28,1.58-2.68,1.72-3.14
			C50.69,21,50.83,19.94,50.79,18.89z"/>
	</g>
	<g>
		<path class="st2" d="M33.9,39.41c-0.35-0.95-1.12-2.63-2.82-4.24c-1.56-1.49-3.23-2.27-4.24-2.66c-1.04-0.41-2.6-0.89-4.58-1.06
			c-1.74-0.14-3.2,0.02-4.24,0.2c0.23,0.7,0.67,1.77,1.58,2.86c0.16,0.19,3.29,3.84,7.52,3.72c1.85-0.05,2.71-0.79,4.41-0.3
			C32.67,38.27,33.44,38.93,33.9,39.41z"/>
		<path class="st2" d="M33.9,39.91c-0.13,0-0.26-0.05-0.36-0.15c-0.63-0.66-1.35-1.11-2.14-1.34c-0.91-0.26-1.54-0.13-2.34,0.05
			c-0.54,0.12-1.15,0.25-1.92,0.27c-4.49,0.12-7.78-3.73-7.91-3.9c-0.75-0.9-1.32-1.92-1.67-3.03c-0.04-0.14-0.03-0.29,0.05-0.41
			c0.07-0.12,0.2-0.21,0.34-0.23c1.44-0.26,2.91-0.33,4.37-0.21c1.63,0.13,3.21,0.5,4.72,1.09c1.67,0.65,3.16,1.58,4.4,2.77
			c1.32,1.25,2.33,2.78,2.94,4.43c0.08,0.22,0,0.47-0.2,0.6C34.08,39.89,33.99,39.91,33.9,39.91z M30.41,37.27
			c0.38,0,0.8,0.05,1.27,0.19c0.31,0.09,0.61,0.21,0.9,0.35c-0.5-0.82-1.12-1.59-1.83-2.27c-1.15-1.09-2.52-1.96-4.07-2.56
			c-1.41-0.55-2.91-0.9-4.44-1.02c-1.17-0.1-2.35-0.06-3.52,0.1c0.31,0.77,0.75,1.49,1.29,2.15c0.03,0.04,3.1,3.65,7.12,3.54
			c0.67-0.02,1.21-0.14,1.73-0.25C29.35,37.38,29.85,37.27,30.41,37.27z"/>
	</g>
	<g>
		<path class="st1" d="M86.23,20.04c-0.12-2.08-0.35-5.59-2.32-9.37c-2.75-5.25-6.99-7.47-8.42-8.2c-3.56-1.8-6.82-2.01-8.69-1.97
			c-6.47,0.1-12.95,0.2-19.43,0.3c0.81,0.62,1.87,1.64,2.33,3.19c0.31,1.05,0.17,1.7,0.17,3.59c0.01,3.32-0.11,4.12,0.38,5.18
			c0.04,0.08,0.18,0.32,0.33,0.57c0.43,0.72,0.8,1.28,1,1.57c0.07,0.11,0.12,0.17,0.14,0.2c0.35,0.51,1.02,1.7,1.35,2.88
			c0.75,2.7-0.33,5.35-0.54,5.87c-0.4,0.98-1.03,1.98-1.03,1.98c-0.33,0.53-0.61,0.89-0.69,0.99c-0.94,1.28-0.79,3.74-0.72,6.94
			c0.05,2.26,0.05,4.32-0.46,6.07c-0.27,0.94-0.66,1.67-1.11,2.28c-0.41,0.56-0.84,0.95-1.15,1.21c6.3,0,12.59,0,18.89,0
			c2.34-0.14,5.46-0.69,8.78-2.37c1.9-0.96,4.49-2.3,6.81-5.3c1.66-2.14,2.43-4.17,2.86-5.29C86.23,26.33,86.36,22.56,86.23,20.04z
			 M77.12,32.45c-3.82,5.55-9.79,6.92-12.29,7.5c-3.48,0.8-6.48,0.6-8.48,0.29V4.64c1.85-0.49,4.63-0.98,7.94-0.6
			c2.65,0.31,9.46,1.07,13.44,6.85C82.04,17.17,81.14,26.6,77.12,32.45z"/>
		<path class="st1" d="M47.36,43.83c-0.21,0-0.4-0.13-0.47-0.33c-0.07-0.2-0.01-0.42,0.15-0.56c0.4-0.33,0.76-0.71,1.07-1.12
			c0.46-0.62,0.8-1.31,1.03-2.12c0.49-1.69,0.49-3.76,0.44-5.92l-0.02-0.79c-0.07-2.88-0.13-5.15,0.84-6.46
			c0.15-0.2,0.38-0.51,0.67-0.96c0.01-0.01,0.61-0.97,0.99-1.9c0.46-1.12,1.13-3.34,0.52-5.55c-0.3-1.07-0.93-2.22-1.28-2.73
			l-0.14-0.21c-0.2-0.3-0.58-0.86-1.01-1.6c-0.17-0.29-0.31-0.53-0.35-0.61c-0.44-0.96-0.44-1.72-0.42-3.76c0-0.47,0.01-1,0-1.63
			c0-0.51,0.01-0.93,0.02-1.29c0.02-0.98,0.03-1.47-0.17-2.16c-0.33-1.11-1.06-2.1-2.16-2.93c-0.17-0.13-0.24-0.35-0.17-0.55
			c0.07-0.2,0.25-0.34,0.47-0.34L66.79,0c3.09-0.06,6.17,0.63,8.92,2.02c3.84,1.96,6.74,4.79,8.64,8.41
			c2.06,3.93,2.27,7.6,2.38,9.57c0,0,0,0,0,0c0.2,3.72-0.32,7.26-1.55,10.53c-0.44,1.14-1.24,3.23-2.94,5.42
			c-2.44,3.15-5.17,4.53-6.98,5.44c-2.81,1.42-5.83,2.24-8.97,2.42L47.36,43.83z M48.59,42.83h17.67c2.98-0.18,5.87-0.96,8.55-2.32
			c1.73-0.87,4.34-2.19,6.64-5.16c1.61-2.07,2.38-4.07,2.79-5.15c1.19-3.15,1.69-6.56,1.49-10.14c-0.11-1.9-0.31-5.42-2.27-9.16
			c-1.8-3.43-4.56-6.12-8.21-7.99c-2.6-1.31-5.54-1.98-8.45-1.92L48.65,1.28c0.73,0.77,1.24,1.62,1.52,2.57
			c0.25,0.85,0.24,1.46,0.21,2.47c-0.01,0.35-0.02,0.77-0.02,1.26c0,0.63,0,1.17,0,1.64c-0.01,1.93-0.01,2.58,0.33,3.33
			c0.03,0.07,0.16,0.27,0.29,0.5c0.43,0.74,0.8,1.29,0.99,1.57l0.14,0.2c0.34,0.49,1.07,1.75,1.42,3.03
			c0.51,1.85,0.31,4.05-0.56,6.19c-0.41,1.01-1.04,2.02-1.07,2.06c-0.3,0.48-0.56,0.82-0.67,0.97c-0.8,1.08-0.75,3.2-0.68,5.89
			l0.02,0.79c0.05,2.24,0.05,4.39-0.48,6.22c-0.27,0.92-0.66,1.72-1.19,2.44C48.81,42.56,48.7,42.7,48.59,42.83z M59.86,41.01
			c-1.19,0-2.39-0.09-3.59-0.28c-0.24-0.04-0.42-0.25-0.42-0.49V4.64c0-0.23,0.15-0.43,0.37-0.48c2.7-0.72,5.44-0.92,8.12-0.61
			c2.67,0.31,9.7,1.12,13.79,7.06c4.75,6.9,3.23,16.54-0.61,22.12c-3.93,5.71-10,7.11-12.59,7.7
			C63.27,40.82,61.57,41.01,59.86,41.01z M56.85,39.8c2.65,0.36,5.3,0.25,7.86-0.34c2.48-0.57,8.28-1.91,11.99-7.29l0.41,0.28
			l-0.41-0.28c3.7-5.38,4.94-14.69,0.61-20.98C73.48,5.6,66.78,4.83,64.26,4.54c-2.46-0.28-4.95-0.12-7.4,0.49V39.8z"/>
	</g>
	<g>
		<path class="st1" d="M60.55,41.03c-1.15,0-2.3-0.1-3.46-0.3c-0.24-0.04-0.41-0.25-0.41-0.49V4.64c0-0.22,0.15-0.42,0.37-0.48
			c2.57-0.72,5.16-0.92,7.71-0.62c2.74,0.32,9.17,1.08,13.08,7.07c3.86,5.88,3.35,13.76,1.14,18.96c0,0,0,0,0,0
			c-3.53,8.29-11.15,10.22-13.66,10.85C63.77,40.83,62.17,41.03,60.55,41.03z M57.68,39.81c2.51,0.38,5,0.26,7.4-0.35
			c2.39-0.6,9.64-2.43,12.98-10.27c2.11-4.96,2.59-12.45-1.06-18.02c-3.67-5.6-9.76-6.32-12.37-6.63c-2.3-0.28-4.64-0.11-6.96,0.49
			V39.81z"/>
	</g>
	<g>
	</g>
	<g>
	</g>
	<g>
	</g>
	<g>
	</g>
	<g>
	</g>
	<g>
	</g>
	<g>
	</g>
	<g>
	</g>
	<g>
	</g>
	<g>
	</g>
	<g>
	</g>
	<g>
	</g>
	<g>
	</g>
	<g>
	</g>
	<g>
	</g>
</g>
</svg>
