<?xml version="1.0" encoding="utf-8"?>
<!-- Generator: Adobe Illustrator 30.1.0, SVG Export Plug-In . SVG Version: 9.03 Build 0)  -->
<svg version="1.1" id="Layer_3" xmlns="http://www.w3.org/2000/svg" xmlns:xlink="http://www.w3.org/1999/xlink" x="0px" y="0px"
	 viewBox="0 0 120.78 120.78" style="enable-background:new 0 0 120.78 120.78;" xml:space="preserve">
<style type="text/css">
	.st0{fill:#252D40;}
</style>
<path class="st0" d="M84.78,0H36C16.2,0,0,16.2,0,36v48.78c0,19.8,16.2,36,36,36h48.78c19.8,0,36-16.2,36-36V36
	C120.78,16.2,104.58,0,84.78,0z M106.27,26.87c-15.33,14.32-30.67,28.64-46,42.97c-0.18,0.13-0.74,0.51-1.54,0.51
	c-0.69-0.01-1.18-0.29-1.37-0.42c-14.35-14.35-28.7-28.71-43.05-43.06H106.27z M10.17,89.6V30.33l28.89,28.65L10.17,89.6z
	 M14.12,93.39L42.29,62.6l12.23,11.74c0.64,0.37,2.15,1.14,4.21,1.1c1.76-0.04,3.08-0.65,3.71-1.01c4.47-4.19,8.94-8.38,13.41-12.57
	l31.11,31.53H14.12z M110.61,89.69l-30.75-31.5l30.75-27.86V89.69z"/>
<g>
</g>
<g>
</g>
<g>
</g>
<g>
</g>
<g>
</g>
<g>
</g>
<g>
</g>
<g>
</g>
<g>
</g>
<g>
</g>
<g>
</g>
<g>
</g>
<g>
</g>
<g>
</g>
<g>
</g>
</svg>
