<?xml version="1.0" encoding="utf-8"?>
<!-- Generator: Adobe Illustrator 30.1.0, SVG Export Plug-In . SVG Version: 9.03 Build 0)  -->
<svg version="1.1" xmlns="http://www.w3.org/2000/svg" xmlns:xlink="http://www.w3.org/1999/xlink" x="0px" y="0px"
	 viewBox="0 0 676.17 733.73" style="enable-background:new 0 0 676.17 733.73;" xml:space="preserve">
<style type="text/css">
	.st0{fill:#252D40;}
	.st1{fill:#567855;stroke:#567855;stroke-width:2.0217;stroke-linecap:round;stroke-linejoin:round;stroke-miterlimit:10;}
	.st2{fill:#567855;stroke:#567855;stroke-width:1.4456;stroke-linecap:round;stroke-linejoin:round;stroke-miterlimit:10;}
	.st3{fill:#567855;stroke:#567855;stroke-width:0.6893;stroke-linecap:round;stroke-linejoin:round;stroke-miterlimit:10;}
	.st4{fill:#567855;stroke:#567855;stroke-width:1.4243;stroke-linecap:round;stroke-linejoin:round;stroke-miterlimit:10;}
	.st5{fill:#6E5B51;}
	.st6{fill:#C8DAFF;}
	.st7{fill:#879ECE;}
	.st8{opacity:0.5;}
	.st9{fill:#C7B299;}
	.st10{fill:#998675;}
	.st11{fill:#333333;}
	.st12{fill:#1A1A1A;}
	.st13{opacity:0.25;}
</style>
<g id="Layer_8">
	<g>
		<g>
			<g>
				<path class="st0" d="M531.7,370.23c-50,12.18-116.63,23.45-195.43,23.45s-145.43-11.28-195.43-23.45
					c-1.37,0-8.66-0.14-14.55-5.97c-3.72-3.69-6.03-8.79-6.03-14.42V237.79c0-11.26,9.21-20.39,20.57-20.39
					c66.6,0,133.19,0,199.79,0c63.69,0,127.38,0,191.07,0c1.37,0,8.66,0.14,14.55,5.97c3.72,3.69,6.03,8.79,6.03,14.42v112.05
					C552.27,361.1,543.06,370.23,531.7,370.23z"/>
			</g>
		</g>
	</g>
</g>
<g id="Layer_7">
	<path class="st1" d="M338.73,341.3h-5.87c-10.05-14.84-21.73-37.46-18.89-63.33c3.23-29.56,22.89-40.43,30.33-71.25
		c4.09-16.96,5.17-42.8-11.43-78.94c1.96,0,3.91,0,5.87,0c16.51,35.96,15.25,61.47,11.44,77.74c-7.2,30.66-26.49,41.19-30.2,70.37
		C316.55,302.8,328.81,326.43,338.73,341.3z"/>
	<path class="st2" d="M333.24,127.31c4.77,2.31,11.58,6.32,17.66,13.2c6.13,6.92,6.29,10.84,11.72,14.16
		c8.31,5.07,22.16,4.61,25.86-1.61c3.85-6.49-4.09-18.02-11.76-23.7C359.95,116.93,335.99,126.2,333.24,127.31z"/>
	<path class="st3" d="M347.31,184.65c2.3-1.09,5.59-2.98,8.52-6.22c2.96-3.26,3.03-5.11,5.66-6.67c4.01-2.39,10.7-2.17,12.48,0.76
		c1.86,3.06-1.97,8.49-5.68,11.17C360.2,189.54,348.64,185.17,347.31,184.65z"/>
	<path class="st4" d="M339.53,127.05c-4.93,2.17-11.95,5.95-18.22,12.41c-6.32,6.51-6.49,10.2-12.1,13.32
		c-8.57,4.77-22.87,4.33-26.68-1.52c-3.98-6.11,4.22-16.95,12.14-22.3C311.97,117.29,336.69,126.01,339.53,127.05z"/>
	<g>
		<g>
			<g>
				<path class="st5" d="M126.3,362.98c20.3-20.06,42.16-48.16,35.51-74.99c-6.23-25.14-33.74-34.02-29.93-45.33
					c2.18-6.49,14.47-13.18,111.65-9.46c57.6,2.21,54.66,4.61,87.91,4.96c56.99,0.6,69.48-6.36,130.7-5.71
					c37.12,0.4,80.07,0.86,82.43,11.78c1.84,8.49-21.38,20.73-49.23,32.31c3.21,16.29,8.68,34.9,17.95,55
					c5.27,11.43,11.11,21.92,17.11,31.44C395.7,362.98,261,362.98,126.3,362.98z"/>
			</g>
		</g>
		<g>
			<g>
				<path class="st5" d="M530.4,368.22H126.3c-2.13,0-4.04-1.28-4.85-3.25c-0.81-1.97-0.35-4.23,1.16-5.72
					c27.43-27.11,38.9-50.66,34.11-70c-2.95-11.88-11.27-19.69-18.61-26.59c-7.23-6.79-14.06-13.2-11.21-21.68
					c3.18-9.45,14.17-16.95,116.82-13.02c29.63,1.13,43.2,2.31,54.11,3.26c10.24,0.89,17.63,1.53,33.66,1.7
					c27.72,0.29,44.51-1.19,62.28-2.77c18.19-1.61,37.01-3.28,68.42-2.94c57.27,0.61,84.57,2.38,87.5,15.92
					c1.83,8.46-7.51,15.44-15.86,20.57c-7.67,4.72-18.59,10.1-32.49,16.01c3.64,16.8,9.25,33.48,16.7,49.64
					c4.8,10.41,10.44,20.78,16.78,30.84c1.02,1.62,1.08,3.66,0.16,5.33C534.06,367.18,532.31,368.22,530.4,368.22z M138.61,357.73
					h382.46c-4.63-7.9-8.83-15.94-12.55-24c-8.42-18.26-14.58-37.16-18.33-56.18c-0.48-2.45,0.83-4.9,3.13-5.85
					c41.49-17.25,45.65-24.9,46.07-26.35c-0.64-0.74-4.65-4.08-25.52-5.93c-15.14-1.34-33.77-1.54-51.79-1.73
					c-30.9-0.33-49.45,1.31-67.38,2.9c-17.24,1.53-35.07,3.1-63.31,2.81c-16.42-0.17-23.99-0.83-34.45-1.74
					c-10.79-0.94-24.23-2.1-53.6-3.23c-43.67-1.67-73.29-1.39-90.57,0.86c-14.15,1.84-15.74,4.51-15.91,5.03
					c-0.71,2.1,4.16,6.66,8.45,10.69c7.56,7.1,17.92,16.82,21.61,31.71C172.07,307.56,162.55,331.41,138.61,357.73z"/>
			</g>
		</g>
	</g>
</g>
<g id="Layer_2">
	<g id="Layer_4">
		<g>
			<g>
				<g>
					<path class="st6" d="M452.15,595.78c-31.99,14.69-72.4,27.79-118.39,27.79s-86.4-13.1-118.39-27.79
						c-0.83,0-5.27-0.17-10.05-7.42c-3.07-4.66-5.61-11.18-6.87-18.52l-31.18-181.33c-3.95-22.96,0.12-42.38,9.26-42.38
						c44.08,11.43,97.26,20.61,157.23,20.61s113.15-9.18,157.23-20.61c1.1,0,6.92,0.29,9.56,12.79c1.64,7.74,1.65,18.24-0.3,29.59
						l-31.18,181.33C466.57,584.38,459.03,595.78,452.15,595.78z"/>
				</g>
			</g>
		</g>
	</g>
	<g id="Layer_6">
		<g>
			<g>
				<g>
					<path class="st7" d="M168.39,395.06c55.75,4.16,118.39,12.18,186.07,26.51c48.7,10.31,93.47,22.5,134.02,35.38
						c0.85-4.96,1.71-9.92,2.56-14.89c3.3-19.18,4.95-28.77,4.95-28.78c3.41-19.63,3.46-19.33,4.26-24.76
						c2.8-19.07,1.46-24.11,0.3-29.59c-2.65-12.5-8.46-12.79-9.56-12.79c-44.08,11.43-97.26,20.61-157.23,20.61
						s-113.15-9.18-157.23-20.61c-4.32,0-7.5,4.34-9.25,11.34c-0.04,0.15-0.23,0.82-0.38,1.66
						C165.6,366.54,167.49,386.43,168.39,395.06z"/>
				</g>
			</g>
		</g>
	</g>
	<g id="Layer_5">
		<g class="st8">
			<g>
				<g>
					<path class="st7" d="M294.7,539.05c-84.05-37.96-116.58-110.66-123.36-126.84l27.1,157.63c1.26,7.34,3.8,13.86,6.87,18.52
						c4.78,7.25,9.22,7.42,10.05,7.42c31.99,14.69,72.4,27.79,118.39,27.79c46,0,86.4-13.1,118.39-27.79
						c6.88,0,14.42-11.4,16.92-25.94l3.89-22.61C456.61,552.87,379.69,577.44,294.7,539.05z"/>
				</g>
			</g>
		</g>
	</g>
	<g id="Layer_3">
		<g>
			<g>
				<g>
					<path class="st6" d="M534.14,375.49c-51.26,12.6-119.58,24.26-200.39,24.26s-149.12-11.66-200.39-24.26
						c-1.4,0-8.88-0.14-14.91-6.18c-3.82-3.82-6.18-9.09-6.18-14.91v-115.9c0-11.65,9.44-21.09,21.09-21.09
						c49.64,13.43,118.22,26.62,200.39,26.62c51.43,0,121.07-5.17,200.39-26.62c1.4,0,8.88,0.14,14.91,6.18
						c3.82,3.82,6.18,9.09,6.18,14.91v115.9C555.24,366.05,545.79,375.49,534.14,375.49z"/>
				</g>
			</g>
		</g>
	</g>
	<g class="st8">
		<g>
			<g>
				<path class="st7" d="M221.14,318.36c-45.13-25.93-81.14-54.37-108.86-79.86c0,38.63,0,77.27,0,115.9
					c0,5.82,2.36,11.1,6.18,14.91c6.04,6.04,13.51,6.18,14.91,6.18c51.26,12.6,119.58,24.26,200.39,24.26
					c37.54,0,72.38-2.52,104.07-6.48C383.74,385.24,304.72,366.39,221.14,318.36z"/>
			</g>
		</g>
	</g>
</g>
<g id="Layer_9">
	<g>
		<g>
			<rect y="584.45" class="st9" width="676.17" height="45.59"/>
		</g>
	</g>
	<g>
		<g>
			<path class="st10" d="M0,601.08v28.96h676.17c-165.02-2.09-337.27-7.9-515.99-18.39C106.02,608.46,52.62,604.93,0,601.08z"/>
		</g>
	</g>
	<g>
		<g>
			<rect x="123.01" y="630.03" class="st11" width="30.91" height="103.7"/>
		</g>
	</g>
	<g>
		<g>
			<path class="st12" d="M123.07,630.03h-0.06v103.7h30.91l0,0C143.64,699.16,133.36,664.6,123.07,630.03z"/>
		</g>
	</g>
	<g>
		<g>
			<rect x="525.66" y="630.03" class="st11" width="30.91" height="103.7"/>
		</g>
	</g>
	<g>
		<g>
			<path class="st12" d="M525.72,630.03h-0.06v103.7h30.91l0,0C546.29,699.16,536.01,664.6,525.72,630.03z"/>
		</g>
	</g>
	<g class="st13">
		<g>
			<polygon points="549.93,722.67 126.24,722.67 0,630.03 676.17,630.03 			"/>
		</g>
	</g>
	<g>
	</g>
	<g>
	</g>
	<g>
	</g>
	<g>
	</g>
	<g>
	</g>
	<g>
	</g>
	<g>
	</g>
	<g>
	</g>
	<g>
	</g>
	<g>
	</g>
	<g>
	</g>
	<g>
	</g>
	<g>
	</g>
	<g>
	</g>
	<g>
	</g>
</g>
</svg>
